<mxfile host="app.diagrams.net" modified="2023-10-24T01:00:51.911Z" agent="Mozilla/5.0 (Windows NT 10.0; Win64; x64) AppleWebKit/537.36 (KHTML, like Gecko) Chrome/113.0.0.0 Safari/537.36 Edg/113.0.1774.35" etag="NSlibxJbgr1-0ZYTHQP-" version="22.0.6" type="device">
  <diagram name="Página-1" id="zFjW1VYcF0Z-vTGDa7jA">
    <mxGraphModel dx="1114" dy="608" grid="1" gridSize="10" guides="1" tooltips="1" connect="1" arrows="1" fold="1" page="1" pageScale="1" pageWidth="827" pageHeight="1169" background="none" math="0" shadow="0">
      <root>
        <mxCell id="0" />
        <mxCell id="1" parent="0" />
        <mxCell id="Dqf2oGNJoRefm80zlpJA-3" style="edgeStyle=orthogonalEdgeStyle;rounded=0;orthogonalLoop=1;jettySize=auto;html=1;entryX=0;entryY=0.5;entryDx=0;entryDy=0;labelBackgroundColor=none;strokeColor=#736CA8;fontColor=default;" edge="1" parent="1" source="Dqf2oGNJoRefm80zlpJA-1" target="Dqf2oGNJoRefm80zlpJA-2">
          <mxGeometry relative="1" as="geometry" />
        </mxCell>
        <mxCell id="Dqf2oGNJoRefm80zlpJA-6" style="edgeStyle=orthogonalEdgeStyle;rounded=0;orthogonalLoop=1;jettySize=auto;html=1;entryX=0;entryY=0.5;entryDx=0;entryDy=0;labelBackgroundColor=none;strokeColor=#736CA8;fontColor=default;" edge="1" parent="1" source="Dqf2oGNJoRefm80zlpJA-1" target="Dqf2oGNJoRefm80zlpJA-4">
          <mxGeometry relative="1" as="geometry" />
        </mxCell>
        <mxCell id="Dqf2oGNJoRefm80zlpJA-7" style="edgeStyle=orthogonalEdgeStyle;rounded=0;orthogonalLoop=1;jettySize=auto;html=1;entryX=0;entryY=0.5;entryDx=0;entryDy=0;labelBackgroundColor=none;strokeColor=#736CA8;fontColor=default;" edge="1" parent="1" source="Dqf2oGNJoRefm80zlpJA-1" target="Dqf2oGNJoRefm80zlpJA-5">
          <mxGeometry relative="1" as="geometry" />
        </mxCell>
        <mxCell id="Dqf2oGNJoRefm80zlpJA-19" style="edgeStyle=orthogonalEdgeStyle;rounded=0;orthogonalLoop=1;jettySize=auto;html=1;exitX=0.5;exitY=0.5;exitDx=0;exitDy=0;exitPerimeter=0;entryX=0;entryY=0.5;entryDx=0;entryDy=0;labelBackgroundColor=none;strokeColor=#736CA8;fontColor=default;" edge="1" parent="1" source="Dqf2oGNJoRefm80zlpJA-1" target="Dqf2oGNJoRefm80zlpJA-18">
          <mxGeometry relative="1" as="geometry" />
        </mxCell>
        <mxCell id="Dqf2oGNJoRefm80zlpJA-1" value="Cliente" style="shape=umlActor;verticalLabelPosition=bottom;verticalAlign=top;html=1;outlineConnect=0;labelBackgroundColor=none;fillColor=#5D7F99;strokeColor=#D0CEE2;fontColor=#1A1A1A;" vertex="1" parent="1">
          <mxGeometry x="30" y="240" width="30" height="60" as="geometry" />
        </mxCell>
        <mxCell id="Dqf2oGNJoRefm80zlpJA-2" value="Efetuar Login" style="ellipse;whiteSpace=wrap;html=1;labelBackgroundColor=none;fillColor=#5D7F99;strokeColor=#D0CEE2;fontColor=#1A1A1A;" vertex="1" parent="1">
          <mxGeometry x="170" y="130" width="100" height="70" as="geometry" />
        </mxCell>
        <mxCell id="Dqf2oGNJoRefm80zlpJA-4" value="Selecionar sabor de pizza" style="ellipse;whiteSpace=wrap;html=1;labelBackgroundColor=none;fillColor=#5D7F99;strokeColor=#D0CEE2;fontColor=#1A1A1A;" vertex="1" parent="1">
          <mxGeometry x="170" y="220" width="100" height="80" as="geometry" />
        </mxCell>
        <mxCell id="Dqf2oGNJoRefm80zlpJA-5" value="Escolher pizza" style="ellipse;whiteSpace=wrap;html=1;labelBackgroundColor=none;fillColor=#5D7F99;strokeColor=#D0CEE2;fontColor=#1A1A1A;" vertex="1" parent="1">
          <mxGeometry x="170" y="320" width="100" height="70" as="geometry" />
        </mxCell>
        <mxCell id="Dqf2oGNJoRefm80zlpJA-40" style="edgeStyle=orthogonalEdgeStyle;rounded=0;orthogonalLoop=1;jettySize=auto;html=1;entryX=1;entryY=0.5;entryDx=0;entryDy=0;labelBackgroundColor=none;strokeColor=#736CA8;fontColor=default;" edge="1" parent="1" source="Dqf2oGNJoRefm80zlpJA-8" target="Dqf2oGNJoRefm80zlpJA-34">
          <mxGeometry relative="1" as="geometry" />
        </mxCell>
        <mxCell id="Dqf2oGNJoRefm80zlpJA-41" style="edgeStyle=orthogonalEdgeStyle;rounded=0;orthogonalLoop=1;jettySize=auto;html=1;entryX=1;entryY=0.5;entryDx=0;entryDy=0;labelBackgroundColor=none;strokeColor=#736CA8;fontColor=default;" edge="1" parent="1" source="Dqf2oGNJoRefm80zlpJA-8" target="Dqf2oGNJoRefm80zlpJA-35">
          <mxGeometry relative="1" as="geometry" />
        </mxCell>
        <mxCell id="Dqf2oGNJoRefm80zlpJA-42" style="edgeStyle=orthogonalEdgeStyle;rounded=0;orthogonalLoop=1;jettySize=auto;html=1;exitX=0.5;exitY=0.5;exitDx=0;exitDy=0;exitPerimeter=0;entryX=1;entryY=0.5;entryDx=0;entryDy=0;labelBackgroundColor=none;strokeColor=#736CA8;fontColor=default;" edge="1" parent="1" source="Dqf2oGNJoRefm80zlpJA-8" target="Dqf2oGNJoRefm80zlpJA-36">
          <mxGeometry relative="1" as="geometry" />
        </mxCell>
        <mxCell id="Dqf2oGNJoRefm80zlpJA-8" value="FUncionário" style="shape=umlActor;verticalLabelPosition=bottom;verticalAlign=top;html=1;outlineConnect=0;labelBackgroundColor=none;fillColor=#5D7F99;strokeColor=#D0CEE2;fontColor=#1A1A1A;" vertex="1" parent="1">
          <mxGeometry x="760" y="150" width="30" height="60" as="geometry" />
        </mxCell>
        <mxCell id="Dqf2oGNJoRefm80zlpJA-18" value="Fazer pagamento" style="ellipse;whiteSpace=wrap;html=1;labelBackgroundColor=none;fillColor=#5D7F99;strokeColor=#D0CEE2;fontColor=#1A1A1A;" vertex="1" parent="1">
          <mxGeometry x="170" y="410" width="100" height="70" as="geometry" />
        </mxCell>
        <mxCell id="Dqf2oGNJoRefm80zlpJA-23" value="Esqueci senha" style="ellipse;whiteSpace=wrap;html=1;labelBackgroundColor=none;fillColor=#5D7F99;strokeColor=#D0CEE2;fontColor=#1A1A1A;" vertex="1" parent="1">
          <mxGeometry x="400" y="100" width="100" height="60" as="geometry" />
        </mxCell>
        <mxCell id="Dqf2oGNJoRefm80zlpJA-25" value="Cadastro" style="ellipse;whiteSpace=wrap;html=1;labelBackgroundColor=none;fillColor=#5D7F99;strokeColor=#D0CEE2;fontColor=#1A1A1A;" vertex="1" parent="1">
          <mxGeometry x="400" y="170" width="100" height="60" as="geometry" />
        </mxCell>
        <mxCell id="Dqf2oGNJoRefm80zlpJA-27" value="include" style="text;html=1;strokeColor=none;fillColor=none;align=center;verticalAlign=middle;whiteSpace=wrap;rounded=0;fontSize=15;labelBackgroundColor=none;fontColor=#1A1A1A;" vertex="1" parent="1">
          <mxGeometry x="340" y="150" width="60" height="30" as="geometry" />
        </mxCell>
        <mxCell id="Dqf2oGNJoRefm80zlpJA-28" value="" style="endArrow=none;dashed=1;html=1;dashPattern=1 3;strokeWidth=2;rounded=0;exitX=1;exitY=0.5;exitDx=0;exitDy=0;entryX=-0.033;entryY=0.425;entryDx=0;entryDy=0;entryPerimeter=0;labelBackgroundColor=none;strokeColor=#736CA8;fontColor=default;" edge="1" parent="1" source="Dqf2oGNJoRefm80zlpJA-2" target="Dqf2oGNJoRefm80zlpJA-25">
          <mxGeometry width="50" height="50" relative="1" as="geometry">
            <mxPoint x="320" y="310" as="sourcePoint" />
            <mxPoint x="370" y="260" as="targetPoint" />
          </mxGeometry>
        </mxCell>
        <mxCell id="Dqf2oGNJoRefm80zlpJA-29" value="" style="endArrow=none;dashed=1;html=1;dashPattern=1 3;strokeWidth=2;rounded=0;exitX=1;exitY=0.5;exitDx=0;exitDy=0;entryX=0;entryY=0.5;entryDx=0;entryDy=0;labelBackgroundColor=none;strokeColor=#736CA8;fontColor=default;" edge="1" parent="1" source="Dqf2oGNJoRefm80zlpJA-2" target="Dqf2oGNJoRefm80zlpJA-23">
          <mxGeometry width="50" height="50" relative="1" as="geometry">
            <mxPoint x="300" y="180" as="sourcePoint" />
            <mxPoint x="416" y="224" as="targetPoint" />
          </mxGeometry>
        </mxCell>
        <mxCell id="Dqf2oGNJoRefm80zlpJA-31" value="Adicionar borda" style="ellipse;whiteSpace=wrap;html=1;labelBackgroundColor=none;fillColor=#5D7F99;strokeColor=#D0CEE2;fontColor=#1A1A1A;" vertex="1" parent="1">
          <mxGeometry x="370" y="250" width="100" height="60" as="geometry" />
        </mxCell>
        <mxCell id="Dqf2oGNJoRefm80zlpJA-32" value="" style="endArrow=none;dashed=1;html=1;dashPattern=1 3;strokeWidth=2;rounded=0;entryX=1;entryY=0.5;entryDx=0;entryDy=0;exitX=0;exitY=0.5;exitDx=0;exitDy=0;labelBackgroundColor=none;strokeColor=#736CA8;fontColor=default;" edge="1" parent="1" source="Dqf2oGNJoRefm80zlpJA-31" target="Dqf2oGNJoRefm80zlpJA-4">
          <mxGeometry width="50" height="50" relative="1" as="geometry">
            <mxPoint x="320" y="370" as="sourcePoint" />
            <mxPoint x="370" y="320" as="targetPoint" />
          </mxGeometry>
        </mxCell>
        <mxCell id="Dqf2oGNJoRefm80zlpJA-33" value="extends" style="text;html=1;strokeColor=none;fillColor=none;align=center;verticalAlign=middle;whiteSpace=wrap;rounded=0;fontSize=15;rotation=8;labelBackgroundColor=none;fontColor=#1A1A1A;" vertex="1" parent="1">
          <mxGeometry x="300" y="240" width="60" height="30" as="geometry" />
        </mxCell>
        <mxCell id="Dqf2oGNJoRefm80zlpJA-34" value="Verificar pedidos" style="ellipse;whiteSpace=wrap;html=1;labelBackgroundColor=none;fillColor=#5D7F99;strokeColor=#D0CEE2;fontColor=#1A1A1A;" vertex="1" parent="1">
          <mxGeometry x="550" y="110" width="120" height="80" as="geometry" />
        </mxCell>
        <mxCell id="Dqf2oGNJoRefm80zlpJA-35" value="Mandar pedido para cozinha" style="ellipse;whiteSpace=wrap;html=1;labelBackgroundColor=none;fillColor=#5D7F99;strokeColor=#D0CEE2;fontColor=#1A1A1A;" vertex="1" parent="1">
          <mxGeometry x="550" y="210" width="120" height="80" as="geometry" />
        </mxCell>
        <mxCell id="Dqf2oGNJoRefm80zlpJA-36" value="Finalizar pedido" style="ellipse;whiteSpace=wrap;html=1;labelBackgroundColor=none;fillColor=#5D7F99;strokeColor=#D0CEE2;fontColor=#1A1A1A;" vertex="1" parent="1">
          <mxGeometry x="550" y="310" width="120" height="80" as="geometry" />
        </mxCell>
        <mxCell id="Dqf2oGNJoRefm80zlpJA-43" value="Fazer PIX" style="ellipse;whiteSpace=wrap;html=1;labelBackgroundColor=none;fillColor=#5D7F99;strokeColor=#D0CEE2;fontColor=#1A1A1A;" vertex="1" parent="1">
          <mxGeometry x="110" y="490" width="80" height="60" as="geometry" />
        </mxCell>
        <mxCell id="Dqf2oGNJoRefm80zlpJA-44" value="" style="endArrow=none;dashed=1;html=1;dashPattern=1 3;strokeWidth=2;rounded=0;entryX=0.18;entryY=0.971;entryDx=0;entryDy=0;exitX=1;exitY=0;exitDx=0;exitDy=0;entryPerimeter=0;labelBackgroundColor=none;strokeColor=#736CA8;fontColor=default;" edge="1" parent="1" source="Dqf2oGNJoRefm80zlpJA-43" target="Dqf2oGNJoRefm80zlpJA-18">
          <mxGeometry width="50" height="50" relative="1" as="geometry">
            <mxPoint x="240" y="540" as="sourcePoint" />
            <mxPoint x="290" y="490" as="targetPoint" />
          </mxGeometry>
        </mxCell>
        <mxCell id="Dqf2oGNJoRefm80zlpJA-45" value="&lt;h1&gt;INCLUDE&lt;/h1&gt;&lt;div&gt;&lt;b&gt;&lt;font color=&quot;#ea6b66&quot;&gt;include &lt;/font&gt;&lt;/b&gt;se refere á &quot;função da função&quot; , como o &quot;Esqueci a senha&quot; quando se faz login&lt;/div&gt;" style="text;html=1;strokeColor=none;fillColor=none;spacing=5;spacingTop=-20;whiteSpace=wrap;overflow=hidden;rounded=0;labelBackgroundColor=none;labelBorderColor=none;fontColor=#1A1A1A;" vertex="1" parent="1">
          <mxGeometry x="210" y="10" width="190" height="110" as="geometry" />
        </mxCell>
        <mxCell id="Dqf2oGNJoRefm80zlpJA-46" value="&lt;h1&gt;EXTENDS&lt;/h1&gt;&lt;div&gt;&lt;b&gt;&lt;font color=&quot;#ea6b66&quot;&gt;extends &lt;/font&gt;&lt;/b&gt;se refere á uma função a mais da função atual, como &quot;adicionar borda recheada&quot;&amp;nbsp;&lt;/div&gt;ou &quot;adicionar refrigerante junto&quot;&amp;nbsp;&lt;span style=&quot;&quot;&gt;quando comprar uma pizza,&amp;nbsp;&lt;/span&gt;" style="text;html=1;strokeColor=none;fillColor=none;spacing=5;spacingTop=-20;whiteSpace=wrap;overflow=hidden;rounded=0;labelBorderColor=none;fontColor=#1A1A1A;labelBackgroundColor=none;" vertex="1" parent="1">
          <mxGeometry x="290" y="320" width="200" height="140" as="geometry" />
        </mxCell>
        <mxCell id="Dqf2oGNJoRefm80zlpJA-47" value="" style="endArrow=classic;html=1;rounded=0;exitX=0.75;exitY=1;exitDx=0;exitDy=0;entryX=0.25;entryY=0;entryDx=0;entryDy=0;labelBackgroundColor=none;strokeColor=#736CA8;fontColor=default;" edge="1" parent="1" source="Dqf2oGNJoRefm80zlpJA-33" target="Dqf2oGNJoRefm80zlpJA-46">
          <mxGeometry width="50" height="50" relative="1" as="geometry">
            <mxPoint x="300" y="340" as="sourcePoint" />
            <mxPoint x="350" y="290" as="targetPoint" />
          </mxGeometry>
        </mxCell>
        <mxCell id="Dqf2oGNJoRefm80zlpJA-48" value="" style="endArrow=classic;html=1;rounded=0;exitX=0.5;exitY=0;exitDx=0;exitDy=0;entryX=0.5;entryY=1;entryDx=0;entryDy=0;labelBackgroundColor=none;strokeColor=#736CA8;fontColor=default;" edge="1" parent="1" source="Dqf2oGNJoRefm80zlpJA-27" target="Dqf2oGNJoRefm80zlpJA-45">
          <mxGeometry width="50" height="50" relative="1" as="geometry">
            <mxPoint x="170" y="70" as="sourcePoint" />
            <mxPoint x="180" y="120" as="targetPoint" />
          </mxGeometry>
        </mxCell>
      </root>
    </mxGraphModel>
  </diagram>
</mxfile>
